<svg xmlns="http://www.w3.org/2000/svg" viewBox="0 0 512 512"><path d="M512 256c0 141.385-114.615 256-256 256-117.457 0-216.44-79.109-246.575-186.953-.209-.721-.397-1.432-.596-2.152a267.34 267.34 0 01-2.842-11.577c0-.042-.01-.073-.021-.115C2.058 293.418 0 274.954 0 256c0-34.283 6.74-66.978 18.975-96.862v-.01a236.377 236.377 0 013.741-8.704 244.99 244.99 0 017.576-15.318 202.77 202.77 0 012.309-4.2C76.434 52.778 160.057 0 256 0c120.592 0 221.706 83.372 248.832 195.626.167.658.324 1.317.481 1.975a253.839 253.839 0 013.02 15.036c.512 3.03.982 6.081 1.39 9.143A256.777 256.777 0 01512 256z" fill="#f0efeb"/><path d="M163.182 269.772c-1.996 16.833-4.232 33.635-5.883 50.5-.46 4.608-2.184 5.339-6.269 5.151-39.56-1.724-79.151-.993-118.732-1.076-7.638-.01-15.256.408-22.873.7-.209-.721-.397-1.432-.596-2.152a267.34 267.34 0 01-2.842-11.577c.92-.219 1.829-.418 2.748-.616 7.481-1.578 9.937-4.681 10.136-12.392.366-15.005.773-29.999.815-45.004.052-23.782-.167-47.564-.313-71.346-.052-7.429-.272-14.848-.387-22.277 0-.188-.01-.366-.01-.543v-.01c-.157-6.635-1.337-10.25-4.869-12.507-1.996-1.275-4.733-2.121-8.453-2.811-1.87-.345-3.762-.627-5.653-.94v-12.978c7.314.324 14.629.669 21.953.857 1.944.042 3.887.084 5.831.104 1.609.021 3.208.042 4.817.052 31.817.387 63.666.972 95.472-.575 7.732-.387 15.59-.355 23.155-2.581h1.787c1.076 1.223.972 2.685.878 4.169-1.003 16.175-2.079 32.35-2.915 48.536-.157 2.905-1.003 4.012-3.877 3.626-1.327-.188-2.696-.167-4.023-.01-2.341.293-3.271-.627-3.877-2.968-1.766-6.896-3.187-13.908-5.705-20.595-4.942-13.093-9.77-16.53-23.531-16.53-17.711 0-35.422-.01-53.144.01-6.76 0-7.304.575-7.304 7.419 0 21.431.073 42.872-.073 64.303-.021 3.406.752 4.618 4.389 4.545 12.34-.251 24.701.084 37-1.296 7.67-.867 10.177-2.926 12.069-10.25 1.223-4.754 2.539-9.488 3.417-14.305.554-3.062 1.703-4.148 4.932-4.054 8.046.188 8.108.021 7.492 8.056-1.463 19.456-1.223 38.933-.502 58.399.136 3.699-.846 4.827-4.629 4.66-7.178-.293-7.178-.063-8.746-7.084-.711-3.197-1.379-6.395-2.236-9.55-1.755-6.457-5.935-10.313-12.716-10.553-12.476-.47-24.973-.606-37.46-.972-2.466-.084-2.978.961-2.968 3.166.063 19.352-.136 38.703.104 58.044.125 10.386 5.663 16.123 16.112 16.332 17.105.334 34.231.376 51.336-.063 12.069-.334 20.125-7.272 25.067-17.93 3.438-7.419 6.593-14.952 9.895-22.423 1.191-2.706 8.694-4.786 10.961-3.062.972.729.324 1.586.22 2.401z" fill="#f66503"/><path d="M509.722 221.78c-14.503 35.735-29.727 71.199-45.046 106.59-6.457 14.921-14.838 28.766-26.833 40.061-8.296 7.805-17.935 12.528-29.236 14.994-1.999.436-4.973.672-8.105.79-8.086.305-16.185-.81-23.868-3.355-1.785-.591-3.538-1.278-5.195-2.241-2.152-1.243-2.863-2.445-2.142-4.921 2.947-10 4.639-20.281 5.966-30.595.412-3.188 1.601-4.204 4.652-4.065 1.081.049 2.177-.02 3.242-.21 3.038-.541 4.541.306 5 3.721.742 5.58 2.027 11.097 3.208 16.624 1.599 7.523 5.695 10.365 13.437 9.582 11.839-1.212 20.752-7.544 28.348-16.144 4.953-5.59 8.892-11.88 12.413-18.463 1.045-1.944.951-3.532.209-5.433-14.555-37.355-29.383-74.595-45.422-111.344-2.738-6.259-6.531-10.721-13.521-12.267-5.099-1.128-2.602-5.569-2.769-8.526-.188-3.406 2.894-1.839 4.368-1.735 19.331 1.411 38.64.669 57.96-.084 1.62-.063 4.221-.888 3.647 2.111-.502 2.633 2.518 6.541-2.424 7.774-2.163.533-4.357.972-6.52 1.505-8.37 2.048-10.836 6.207-8.025 14.378 8.119 23.594 16.948 46.916 26.039 70.154.899 2.32 1.86 4.618 3.177 7.858 1.693-3.668 3.093-6.478 4.294-9.362 9.362-22.476 18.725-44.952 28.014-67.469 3.041-7.356 1.16-11.598-6.175-14.43-2.215-.857-4.472-1.672-6.781-2.194-2.299-.512-3.03-1.672-3.062-4.012-.094-6.541-.188-6.74 6.343-6.259 6.646.491 13.281.773 19.916.815.167.658.324 1.317.481 1.975a253.839 253.839 0 013.02 15.036c.512 3.028.983 6.079 1.39 9.141zm-180.068-30.721c13.849.213 24.875 1.532 35.707 4.488 2.999.818 3.745 1.976 3.303 5.275-1.126 8.387-1.746 16.861-2.125 25.321-.147 3.279-1.096 4.035-4.305 4.43-4.909.605-7.279-.891-8.288-5.735-.814-3.903-2.624-7.588-3.629-11.465-1.384-5.339-4.849-8.251-9.933-9.78-7.674-2.31-15.296-2.25-22.751.604-11.25 4.307-14.519 16.888-6.965 26.322 4.016 5.016 9.487 8.047 15.137 10.763 8.165 3.925 16.517 7.487 24.533 11.691 10.679 5.601 19.5 13.048 22.716 25.477 4.586 17.723-3.065 34.896-19.518 42.999-14.18 6.983-29.221 7.364-44.49 5.159-7.947-1.148-15.75-2.986-23.411-5.439-1.998-.639-2.755-1.309-2.493-3.7 1.153-10.529.985-21.106-.021-31.635-.282-2.949.628-3.272 3.234-3.633 5.312-.736 8.236 1.037 9.515 6.327.831 3.438 2.612 6.633 3.713 10.02 5.301 16.311 18.54 19.322 30.411 18.306 8.687-.744 15.885-4.182 18.679-13.327 2.74-8.966-.204-17.426-8.095-23.728-7.065-5.642-15.493-8.736-23.591-12.421-5.553-2.527-11.075-5.089-16.204-8.412-13-8.425-18.74-20.329-16.811-35.732 1.979-15.8 11.825-24.728 26.312-29.304 7.142-2.26 14.528-3.078 19.37-2.871z" fill="#f66604"/><path d="M192.322 256.169c0-13.548-.112-27.099.081-40.644.046-3.232-.944-3.993-3.996-3.856-5.497.247-11.018-.045-16.522.12-2.579.077-3.531-.473-3.673-3.368-.219-4.46.656-6.589 5.749-7.53 14.406-2.659 23.296-12.267 28.969-25.259 2.268-5.195 3.965-10.595 4.863-16.175.503-3.122 1.774-4.058 4.938-3.963 7.288.22 7.294.032 7.294 7.256 0 9.976.124 19.953-.074 29.925-.061 3.05.603 4.12 3.848 3.935 10.982-.628 21.983-.914 32.971-1.443 5.209-.251 5.189-.369 4.544 4.758-.371 2.952-1.086 5.93-.936 8.861.232 4.571-1.968 4.881-5.688 4.516-10.062-.985-20.167-1.534-30.235-2.459-3.29-.302-4.56.271-4.526 4.052.199 22.628.09 45.26.106 67.891.003 4.769.345 9.513 1.536 14.155 3.075 11.988 11.222 16.796 23.187 13.601 5.432-1.45 10.23-4.096 13.864-8.47 1.331-1.603 1.988-1.465 3.306.056 4.43 5.116 4.546 6.337.45 11.714-4.8 6.302-11.34 9.976-18.758 12.176-8.545 2.535-17.236 3.054-25.99 1.113-15.689-3.481-25.128-15.041-25.282-31.209-.126-13.25-.026-26.501-.026-39.753z" fill="#f66503"/></svg>