<svg xmlns="http://www.w3.org/2000/svg" viewBox="0 0 24 24"><circle cx="12" cy="12" r="11" fill="#F27224"/><path d="M10.46 11.651V7.464c0-.156.016-.249.28-.249h3.552c.62 0 .961.528 1.21 1.52l.201.792h.605c.108-2.25.201-3.226.201-3.226s-1.52.17-2.42.17H9.547L7.11 6.393v.652l.822.155c.574.109.713.233.76.76 0 0 .047 1.551.047 4.11 0 2.56-.047 4.095-.047 4.095 0 .465-.186.636-.76.745l-.822.155v.651l2.436-.077h4.063c.915 0 3.04.077 3.04.077.047-.558.357-3.087.403-3.366h-.573l-.605 1.38c-.481 1.086-1.179 1.164-1.955 1.164h-2.31c-.776 0-1.149-.31-1.149-.977v-3.536s1.69 0 2.28.046c.435.031.698.155.838.76l.186.807h.667l-.047-2.032.093-2.048h-.667l-.217.9c-.14.59-.232.698-.837.76-.683.078-2.296.062-2.296.062v.016z" fill="#FFF"/><path d="M4.222 19.778A10.966 10.966 0 0012 23c6.075 0 11-4.925 11-11 0-3.038-1.231-5.788-3.222-7.778L4.222 19.778z" fill="#231F20" opacity=".1"/></svg>